<?xml version="1.0" encoding="UTF-8"?><svg xmlns="http://www.w3.org/2000/svg" width="428.78" height="142.83" xmlns:xlink="http://www.w3.org/1999/xlink" viewBox="0 0 428.78 142.83"><defs><style>.d{fill:none;}.e{fill:#fff;}.f{fill:#7db2a1;}.g{fill:#d7e7f4;}.h{fill:#103f65;}.i{fill:#a1c6df;}.j{fill:#29477d;}.k{fill:#3960a5;}.l{fill:#1f3968;stroke:#1f3968;}.l,.m,.n{stroke-miterlimit:10;stroke-width:.99px;}.m{fill:#244072;stroke:#244072;}.n{fill:#335294;stroke:#335294;}.o{fill:#678c6c;mix-blend-mode:multiply;opacity:.3;}.p{clip-path:url(#b);}.q{clip-path:url(#c);}.r{isolation:isolate;}</style><clipPath id="b"><rect class="d" x="0" y="0" width="142.83" height="142.83" rx="14.33" ry="14.33"/></clipPath><clipPath id="c"><rect class="d" x="0" y="82.47" width="142.84" height="39.68"/></clipPath></defs><g class="r"><g id="a"><path class="h" d="m186.62,32.64h-11.43c-.14,0-.2.07-.2.2v11.02c0,.14.07.2.2.2h7.01c.34,0,.51.17.51.51v3.2c0,.34-.17.51-.51.51h-7.01c-.14,0-.2.07-.2.2v11.07c0,.14.07.2.2.2h11.43c.34,0,.51.17.51.51v3.2c0,.34-.17.51-.51.51h-16c-.34,0-.51-.17-.51-.51V28.93c0-.34.17-.51.51-.51h16c.34,0,.51.17.51.51v3.2c0,.34-.17.51-.51.51Z"/><path class="h" d="m207.51,39.92c1.13,1.44,1.7,3.48,1.7,6.12v17.42c0,.34-.17.51-.51.51h-3.86c-.34,0-.51-.17-.51-.51v-17.01c0-1.42-.3-2.52-.91-3.3-.61-.78-1.46-1.17-2.54-1.17s-1.99.38-2.61,1.14c-.63.76-.97,1.84-1.04,3.22,0,.2-.02.3-.05.3v16.81c0,.34-.17.51-.51.51h-3.86c-.34,0-.51-.17-.51-.51v-24.83c0-.34.17-.51.51-.51h3.86c.34,0,.51.17.51.51v1.37c0,.07.03.11.1.13.07.02.13-.03.2-.13,1.22-1.49,2.93-2.23,5.13-2.23s3.77.72,4.9,2.16Z"/><path class="h" d="m219.52,63.51l-6.25-24.83-.05-.2c0-.24.15-.36.46-.36h4.32c.34,0,.52.15.56.46l3.66,17.42c.03.1.07.15.1.15s.07-.05.1-.15l3.6-17.42c.07-.3.25-.46.56-.46l4.32.05c.17,0,.3.05.38.15.08.1.09.24.03.41l-6.2,24.78c-.03.3-.22.46-.56.46h-4.47c-.3,0-.49-.15-.56-.46Z"/><path class="h" d="m236.18,33.15c-.61-.61-.91-1.39-.91-2.34s.3-1.73.91-2.34,1.39-.91,2.34-.91,1.77.3,2.36.89c.59.59.89,1.38.89,2.36s-.3,1.73-.91,2.34-1.39.91-2.34.91-1.73-.3-2.34-.91Zm-.05,30.32v-24.83c0-.34.17-.51.51-.51h3.86c.34,0,.51.17.51.51v24.83c0,.34-.17.51-.51.51h-3.86c-.34,0-.51-.17-.51-.51Z"/><path class="h" d="m259.33,38.43c.24.14.32.36.25.66l-.76,3.86c-.03.3-.24.41-.61.3-.44-.17-.91-.25-1.42-.25-.2,0-.51.03-.91.1-1.05.1-1.92.68-2.61,1.73-.69,1.05-1.04,2.32-1.04,3.81v14.83c0,.34-.17.51-.51.51h-3.86c-.34,0-.51-.17-.51-.51v-24.83c0-.34.17-.51.51-.51h3.86c.34,0,.51.17.51.51v2.95c0,.1.03.16.08.18.05.02.09-.03.13-.13.98-2.5,2.56-3.76,4.72-3.76.85,0,1.57.19,2.18.56Z"/><path class="h" d="m265.15,62.17c-1.54-1.47-2.31-3.43-2.31-5.87v-10.51c0-2.4.78-4.35,2.34-5.84,1.56-1.49,3.64-2.23,6.25-2.23s4.74.75,6.3,2.23c1.56,1.49,2.34,3.44,2.34,5.84v10.51c0,2.44-.78,4.39-2.34,5.87-1.56,1.47-3.66,2.21-6.3,2.21s-4.73-.74-6.27-2.21Zm8.96-3.2c.71-.76,1.07-1.77,1.07-3.02v-9.85c0-1.22-.36-2.22-1.07-3-.71-.78-1.61-1.17-2.69-1.17s-1.97.39-2.67,1.17c-.69.78-1.04,1.78-1.04,3v9.85c0,1.25.35,2.26,1.04,3.02.69.76,1.58,1.14,2.67,1.14s1.98-.38,2.69-1.14Z"/><path class="h" d="m300.79,39.92c1.13,1.44,1.7,3.48,1.7,6.12v17.42c0,.34-.17.51-.51.51h-3.86c-.34,0-.51-.17-.51-.51v-17.01c0-1.42-.3-2.52-.91-3.3-.61-.78-1.46-1.17-2.54-1.17s-1.99.38-2.61,1.14c-.63.76-.97,1.84-1.04,3.22,0,.2-.02.3-.05.3v16.81c0,.34-.17.51-.51.51h-3.86c-.34,0-.51-.17-.51-.51v-24.83c0-.34.17-.51.51-.51h3.86c.34,0,.51.17.51.51v1.37c0,.07.03.11.1.13.07.02.13-.03.2-.13,1.22-1.49,2.93-2.23,5.13-2.23s3.77.72,4.9,2.16Z"/><path class="h" d="m334.87,40.03c1.13,1.51,1.7,3.61,1.7,6.32v17.11c0,.34-.17.51-.51.51h-3.81c-.34,0-.51-.17-.51-.51v-16.76c0-1.49-.3-2.65-.91-3.48-.61-.83-1.42-1.24-2.44-1.24-1.08,0-1.95.42-2.59,1.24-.64.83-.96,1.97-.96,3.43v16.81c0,.34-.17.51-.51.51h-3.81c-.34,0-.51-.17-.51-.51v-16.76c0-1.49-.3-2.65-.91-3.48-.61-.83-1.42-1.24-2.44-1.24-1.08,0-1.95.42-2.59,1.24-.64.83-.96,1.97-.96,3.43v16.81c0,.34-.17.51-.51.51h-3.81c-.34,0-.51-.17-.51-.51v-24.83c0-.34.17-.51.51-.51h3.81c.34,0,.51.17.51.51v1.27c0,.07.03.12.08.15.05.03.11.02.18-.05.68-.74,1.46-1.3,2.34-1.68.88-.37,1.76-.56,2.64-.56,2.57,0,4.42,1.13,5.54,3.4.03.07.08.09.15.08.07-.02.12-.09.15-.23.68-1.15,1.54-1.98,2.59-2.49,1.05-.51,2.13-.76,3.25-.76,2.1,0,3.71.75,4.85,2.26Z"/><path class="h" d="m358.5,53.05h-11.48c-.14,0-.2.07-.2.2v2.74c0,1.22.34,2.22,1.02,3,.68.78,1.56,1.17,2.64,1.17.95,0,1.74-.29,2.39-.86.64-.58,1.05-1.32,1.22-2.23.1-.27.29-.41.56-.41l3.76.2c.17,0,.3.05.38.15.08.1.11.22.08.36-.24,2.2-1.08,3.92-2.51,5.15-1.44,1.24-3.39,1.85-5.86,1.85-2.61,0-4.68-.73-6.22-2.18-1.54-1.46-2.31-3.4-2.31-5.84v-10.56c0-2.4.77-4.35,2.31-5.84,1.54-1.49,3.61-2.23,6.22-2.23s4.72.75,6.25,2.23c1.52,1.49,2.29,3.44,2.29,5.84v6.75c0,.34-.17.51-.51.51Zm-10.66-9.95c-.68.78-1.02,1.78-1.02,3v2.69c0,.14.07.2.2.2h6.96c.14,0,.2-.07.2-.2v-2.69c0-1.22-.34-2.22-1.02-3-.68-.78-1.57-1.17-2.69-1.17s-1.96.39-2.64,1.17Z"/><path class="h" d="m379.55,39.92c1.13,1.44,1.7,3.48,1.7,6.12v17.42c0,.34-.17.51-.51.51h-3.86c-.34,0-.51-.17-.51-.51v-17.01c0-1.42-.3-2.52-.91-3.3-.61-.78-1.46-1.17-2.54-1.17s-1.99.38-2.61,1.14c-.63.76-.97,1.84-1.04,3.22,0,.2-.02.3-.05.3v16.81c0,.34-.17.51-.51.51h-3.86c-.34,0-.51-.17-.51-.51v-24.83c0-.34.17-.51.51-.51h3.86c.34,0,.51.17.51.51v1.37c0,.07.03.11.1.13.07.02.13-.03.2-.13,1.22-1.49,2.93-2.23,5.13-2.23s3.77.72,4.9,2.16Z"/><path class="h" d="m396.64,41.68h-3.55c-.14,0-.2.07-.2.2v14.27c0,1.35.24,2.29.71,2.82.47.53,1.22.77,2.23.74h.46c.34,0,.51.17.51.51v3.25c0,.34-.17.51-.51.51h-1.57c-2.17,0-3.8-.42-4.9-1.27-1.1-.85-1.65-2.45-1.65-4.82v-16c0-.13-.07-.2-.2-.2h-1.98c-.34,0-.51-.17-.51-.51v-2.54c0-.34.17-.51.51-.51h1.98c.13,0,.2-.07.2-.2v-5.74c0-.34.17-.51.51-.51h3.71c.34,0,.51.17.51.51v5.74c0,.14.07.2.2.2h3.55c.34,0,.51.17.51.51v2.54c0,.34-.17.51-.51.51Z"/><path class="h" d="m416.16,40.05c1.57,1.56,2.36,3.61,2.36,6.14v17.27c0,.34-.17.51-.51.51h-3.86c-.34,0-.51-.17-.51-.51v-1.12c0-.07-.03-.12-.08-.15-.05-.03-.11-.02-.18.05-1.19,1.42-2.93,2.13-5.23,2.13-1.93,0-3.63-.55-5.1-1.65-1.47-1.1-2.21-3.05-2.21-5.87s.89-5.1,2.67-6.47,4.1-2.06,6.98-2.06h2.95c.14,0,.2-.07.2-.2v-1.47c0-1.42-.34-2.56-1.02-3.43-.68-.86-1.56-1.29-2.64-1.29-.85,0-1.56.29-2.13.86s-.91,1.32-1.02,2.23c0,.34-.17.51-.51.51h-4.11c-.34,0-.51-.17-.51-.51.17-2.17,1.03-3.93,2.59-5.28,1.56-1.35,3.49-2.03,5.79-2.03,2.47,0,4.49.78,6.07,2.34Zm-3.83,18.94c.88-.74,1.32-1.79,1.32-3.15v-3.45c0-.14-.07-.2-.2-.2h-3.1c-1.35,0-2.44.36-3.25,1.09-.81.73-1.22,1.79-1.22,3.17,0,1.22.3,2.13.91,2.74s1.42.91,2.44.91c1.18,0,2.22-.37,3.1-1.12Z"/><path class="h" d="m423.91,63.46V28.93c0-.34.17-.51.51-.51h3.86c.34,0,.51.17.51.51v34.53c0,.34-.17.51-.51.51h-3.86c-.34,0-.51-.17-.51-.51Z"/><path class="h" d="m171.36,111.5c-1.64-1.68-2.46-3.87-2.46-6.58v-1.32c0-.34.17-.51.51-.51h3.76c.34,0,.51.17.51.51v1.07c0,1.56.39,2.8,1.17,3.73.78.93,1.78,1.4,3,1.4s2.23-.45,3.02-1.35c.8-.9,1.19-2.07,1.19-3.53,0-.98-.21-1.84-.63-2.59-.42-.74-.98-1.41-1.68-2.01s-1.82-1.46-3.38-2.62c-1.73-1.29-3.08-2.39-4.06-3.3-.98-.91-1.81-2.01-2.49-3.3-.68-1.29-1.02-2.79-1.02-4.52,0-2.74.81-4.92,2.44-6.52s3.74-2.41,6.35-2.41,4.88.86,6.52,2.59c1.64,1.73,2.46,3.99,2.46,6.8v1.27c0,.34-.17.51-.51.51h-3.76c-.34,0-.51-.17-.51-.51v-1.37c0-1.52-.39-2.75-1.17-3.68-.78-.93-1.79-1.4-3.05-1.4-1.19,0-2.15.42-2.89,1.24-.75.83-1.12,1.99-1.12,3.48,0,1.35.37,2.5,1.12,3.43.74.93,2.18,2.18,4.32,3.73,2.03,1.52,3.56,2.76,4.6,3.71,1.03.95,1.83,1.99,2.39,3.12.56,1.13.84,2.48.84,4.04,0,2.84-.83,5.12-2.49,6.83-1.66,1.71-3.83,2.56-6.5,2.56s-4.83-.84-6.47-2.51Z"/><path class="h" d="m193.85,111.83c-1.54-1.46-2.31-3.42-2.31-5.89v-10.51c0-2.4.77-4.35,2.31-5.84,1.54-1.49,3.61-2.23,6.22-2.23,1.73,0,3.24.33,4.54.99,1.3.66,2.3,1.56,3,2.69.69,1.13,1.04,2.41,1.04,3.83v.66c0,.34-.17.51-.51.51l-3.86.15c-.34,0-.51-.17-.51-.51v-.51c0-.98-.36-1.83-1.07-2.54s-1.59-1.07-2.64-1.07-1.96.39-2.64,1.17c-.68.78-1.02,1.78-1.02,3v9.9c0,1.22.34,2.22,1.02,3,.68.78,1.56,1.17,2.64,1.17s1.93-.36,2.64-1.07,1.07-1.56,1.07-2.54v-.51c0-.34.17-.51.51-.51l3.86.05c.34,0,.51.17.51.51v.76c0,2.2-.78,4-2.34,5.41-1.56,1.41-3.64,2.11-6.25,2.11s-4.68-.73-6.22-2.18Z"/><path class="h" d="m214.09,82.79c-.61-.61-.91-1.39-.91-2.34s.3-1.73.91-2.34,1.39-.91,2.34-.91,1.77.3,2.36.89c.59.59.89,1.38.89,2.36s-.3,1.73-.91,2.34-1.39.91-2.34.91-1.73-.3-2.34-.91Zm-.05,30.32v-24.83c0-.34.17-.51.51-.51h3.86c.34,0,.51.17.51.51v24.83c0,.34-.17.51-.51.51h-3.86c-.34,0-.51-.17-.51-.51Z"/><path class="h" d="m241.36,102.69h-11.48c-.14,0-.2.07-.2.2v2.74c0,1.22.34,2.22,1.02,3,.68.78,1.56,1.17,2.64,1.17.95,0,1.74-.29,2.39-.86.64-.58,1.05-1.32,1.22-2.23.1-.27.29-.41.56-.41l3.76.2c.17,0,.3.05.38.15.08.1.11.22.08.36-.24,2.2-1.08,3.92-2.51,5.15-1.44,1.24-3.39,1.85-5.86,1.85-2.61,0-4.68-.73-6.22-2.18-1.54-1.46-2.31-3.4-2.31-5.84v-10.56c0-2.4.77-4.35,2.31-5.84,1.54-1.49,3.61-2.23,6.22-2.23s4.72.75,6.25,2.23c1.52,1.49,2.29,3.44,2.29,5.84v6.75c0,.34-.17.51-.51.51Zm-10.66-9.95c-.68.78-1.02,1.78-1.02,3v2.69c0,.14.07.2.2.2h6.96c.14,0,.2-.07.2-.2v-2.69c0-1.22-.34-2.22-1.02-3-.68-.78-1.57-1.17-2.69-1.17s-1.96.39-2.64,1.17Z"/><path class="h" d="m262.4,89.57c1.13,1.44,1.7,3.48,1.7,6.12v17.42c0,.34-.17.51-.51.51h-3.86c-.34,0-.51-.17-.51-.51v-17.01c0-1.42-.3-2.52-.91-3.3-.61-.78-1.46-1.17-2.54-1.17s-1.99.38-2.61,1.14c-.63.76-.97,1.84-1.04,3.22,0,.2-.02.3-.05.3v16.81c0,.34-.17.51-.51.51h-3.86c-.34,0-.51-.17-.51-.51v-24.83c0-.34.17-.51.51-.51h3.86c.34,0,.51.17.51.51v1.37c0,.07.03.11.1.13.07.02.13-.03.2-.13,1.22-1.49,2.93-2.23,5.13-2.23s3.77.72,4.9,2.16Z"/><path class="h" d="m271.75,111.83c-1.54-1.46-2.31-3.42-2.31-5.89v-10.51c0-2.4.77-4.35,2.31-5.84,1.54-1.49,3.61-2.23,6.22-2.23,1.73,0,3.24.33,4.54.99,1.3.66,2.3,1.56,3,2.69.69,1.13,1.04,2.41,1.04,3.83v.66c0,.34-.17.51-.51.51l-3.86.15c-.34,0-.51-.17-.51-.51v-.51c0-.98-.36-1.83-1.07-2.54s-1.59-1.07-2.64-1.07-1.96.39-2.64,1.17c-.68.78-1.02,1.78-1.02,3v9.9c0,1.22.34,2.22,1.02,3,.68.78,1.56,1.17,2.64,1.17s1.93-.36,2.64-1.07,1.07-1.56,1.07-2.54v-.51c0-.34.17-.51.51-.51l3.86.05c.34,0,.51.17.51.51v.76c0,2.2-.78,4-2.34,5.41-1.56,1.41-3.64,2.11-6.25,2.11s-4.68-.73-6.22-2.18Z"/><path class="h" d="m307.72,102.69h-11.48c-.14,0-.2.07-.2.2v2.74c0,1.22.34,2.22,1.02,3,.68.78,1.56,1.17,2.64,1.17.95,0,1.74-.29,2.39-.86.64-.58,1.05-1.32,1.22-2.23.1-.27.29-.41.56-.41l3.76.2c.17,0,.3.05.38.15.08.1.11.22.08.36-.24,2.2-1.08,3.92-2.51,5.15-1.44,1.24-3.39,1.85-5.86,1.85-2.61,0-4.68-.73-6.22-2.18-1.54-1.46-2.31-3.4-2.31-5.84v-10.56c0-2.4.77-4.35,2.31-5.84,1.54-1.49,3.61-2.23,6.22-2.23s4.72.75,6.25,2.23c1.52,1.49,2.29,3.44,2.29,5.84v6.75c0,.34-.17.51-.51.51Zm-10.66-9.95c-.68.78-1.02,1.78-1.02,3v2.69c0,.14.07.2.2.2h6.96c.14,0,.2-.07.2-.2v-2.69c0-1.22-.34-2.22-1.02-3-.68-.78-1.57-1.17-2.69-1.17s-1.96.39-2.64,1.17Z"/><path class="h" d="m314.81,112.06c-1.47-1.24-2.21-2.9-2.21-5v-.46c0-.34.17-.51.51-.51h3.61c.34,0,.51.17.51.51v.36c0,.91.36,1.68,1.07,2.31.71.63,1.59.94,2.64.94s1.84-.3,2.46-.91.94-1.39.94-2.34c0-.74-.22-1.37-.66-1.88s-.96-.91-1.55-1.19c-.59-.29-1.5-.69-2.72-1.19-1.32-.58-2.41-1.13-3.28-1.68s-1.63-1.32-2.31-2.34c-.68-1.02-1.02-2.3-1.02-3.86,0-2.3.72-4.1,2.16-5.38,1.44-1.29,3.38-1.93,5.81-1.93s4.48.66,5.92,1.98c1.44,1.32,2.16,3.12,2.16,5.38v.15c0,.34-.17.51-.51.51h-3.5c-.34,0-.51-.17-.51-.51v-.36c0-.91-.32-1.69-.96-2.34-.64-.64-1.47-.96-2.49-.96s-1.88.32-2.49.96c-.61.64-.91,1.42-.91,2.34,0,.71.2,1.3.61,1.78.41.47.9.86,1.47,1.14.58.29,1.49.7,2.74,1.24,1.39.61,2.54,1.19,3.45,1.75s1.72,1.35,2.41,2.36c.69,1.02,1.04,2.29,1.04,3.81,0,2.2-.75,3.94-2.26,5.23-1.51,1.29-3.55,1.93-6.12,1.93s-4.54-.62-6.02-1.85Z"/><g class="p"><path class="i" d="m142.84,71.42H0V14.28C0,6.39,6.39,0,14.28,0h114.27c7.89,0,14.28,6.39,14.28,14.28v57.13Z"/><path class="d" d="m24.57,70.99H0v.04h24.1c.16-.02.32-.03.48-.04Z"/><path class="d" d="m24.57,70.99c-.16.01-.32.03-.48.04h8.87c-.32-.03-.63-.02-.95-.04h-7.45Z"/><path class="d" d="m32.97,71.03h109.87v-.04H32.02c.32.02.62.01.95.04Z"/><path class="n" d="m116.88,110.28c12.12,0,20.91-2.24,25.96-3.99v-21.09c-4.35,1.76-14.01,4.86-28.29,4.86-24.12,0-56.87-16.94-81.57-19.03h-8.87C13.46,72.1,5.19,77.15,0,81.34v22.21c5.35-4.86,16.06-12.51,30.52-12.51,25.12,0,60.65,19.25,86.36,19.25Z"/><path class="j" d="m116.88,110.28c-25.71,0-61.24-19.25-86.36-19.25C16.06,91.03,5.35,98.68,0,103.54v17.44c5.84-4.71,15.57-10.52,28.18-10.52,25.12,0,60.65,19.25,86.36,19.25,14.28,0,23.95-3.1,28.29-4.86v-18.55c-5.05,1.75-13.84,3.99-25.96,3.99Z"/><path class="k" d="m114.54,90.06c14.28,0,23.95-3.1,28.29-4.86v-14.17H32.97c24.7,2.1,57.46,19.03,81.57,19.03Z"/><path class="k" d="m0,71.03v10.31c5.19-4.19,13.46-9.23,24.1-10.31H0Z"/><path class="m" d="m28.18,110.46C15.57,110.46,5.84,116.27,0,120.98v7.59C0,132.57,1.66,136.18,4.31,138.77c5.87-3.82,13.98-7.4,23.87-7.4,14.17,0,31.66,6.13,48.83,11.47h51.56c7.88,0,14.26-6.39,14.26-14.26v-3.73c-4.35,1.76-14.01,4.86-28.29,4.86-25.71,0-61.24-19.25-86.36-19.25Z"/><path class="l" d="m4.31,138.77c2.57,2.51,6.07,4.07,9.95,4.07h62.75c-17.17-5.34-34.65-11.47-48.83-11.47-9.89,0-18,3.58-23.87,7.4Z"/><polygon class="f" points="0 71.03 0 67.33 54.55 53.91 55.23 55.24 87.43 50.26 105.3 53.55 129.9 46.79 131.62 44.29 142.84 41.04 142.84 71.03 0 71.03"/><polygon class="g" points="101.58 37.51 142.84 37.51 142.84 32.58 101.58 37.51"/><polygon class="g" points="70.05 37.51 101.58 37.51 101.58 32.58 70.05 37.51"/><polygon class="g" points="114.96 11.91 114.96 6.8 33.66 11.91 114.96 11.91"/><path class="g" d="m142.62,11.88c-.54-2.9-1.69-4.73-1.69-4.73l-25.96,4.76,27.65-.04Z"/><polygon class="g" points="16.67 26.03 50.65 26.03 50.65 21.15 16.67 26.03"/><polygon class="g" points="142.84 26.03 142.84 20.88 50.65 26.03 142.84 26.03"/><polygon class="o" points="66.32 58.01 55.23 55.24 61.83 54.19 66.32 58.01"/><polygon class="o" points="87.43 50.26 107.34 58.33 113.63 51.26 105.3 53.55 87.43 50.26"/><polygon class="o" points="136.31 52.84 129.1 63.94 129.22 57.96 126.5 62.15 127.33 55.09 122.61 62.35 123.28 55.53 116.35 66.2 116.05 60.87 111.24 68.27 112.67 60.28 107.93 66.5 106.28 64.33 102.89 67.22 102.81 63.87 99.58 68.2 100.42 61.76 96.18 68.28 88.39 71.03 142.84 71.03 142.84 47.89 137.82 54.3 136.31 52.84"/><g class="q"><path class="e" d="m-3.83,107.65c7.37-12.08,20.79-20.15,35.12-20.67,14.12-.47,27.25,3.99,40.32,8.07,12.72,4.05,25.27,8.04,37.67,10.39,9.44,1.69,19.15,1.62,28.7.66,3.26-.38,6.53-.86,9.83-1.69-2.66,2.17-5.75,3.76-8.92,5.11-9.65,3.99-20.32,5.64-30.72,4.77-20.29-1.96-38.92-10.5-58.41-15.25-9.27-2.26-18.26-4.63-27.61-3.25-9.57,1.32-18.4,5.84-25.97,11.85h0Z"/></g><path class="e" d="m44.85,76.09l-1.7-7c-.04-.17-.15-.26-.33-.26h-13.48c-.17,0-.28.09-.33.26l-1.64,7c-.13.44-.44.65-.92.65h-6.22c-.57,0-.79-.28-.65-.85l11.91-44.3c.13-.44.44-.65.92-.65h7.46c.48,0,.79.22.92.65l11.91,44.3.07.26c0,.39-.24.59-.72.59h-6.28c-.48,0-.79-.22-.92-.65Zm-14.2-13.32c.09.07.17.1.26.1h10.34c.09,0,.17-.03.26-.1.09-.07.11-.16.07-.29l-5.37-21.46c-.04-.13-.11-.2-.2-.2s-.15.07-.2.2l-5.24,21.46c-.04.13-.02.23.07.29Z"/><path class="e" d="m65.72,75.73c-2.18-1.02-3.87-2.49-5.07-4.38-1.2-1.9-1.8-4.09-1.8-6.58v-1.7c0-.22.08-.4.23-.56s.34-.23.56-.23h5.89c.22,0,.4.08.56.23.15.15.23.34.23.56v1.31c0,1.88.65,3.4,1.96,4.58,1.31,1.18,3.08,1.77,5.3,1.77,2.05,0,3.62-.52,4.71-1.57,1.09-1.05,1.64-2.42,1.64-4.12,0-1.18-.31-2.19-.92-3.04-.61-.85-1.47-1.64-2.58-2.36s-2.83-1.69-5.14-2.91c-2.66-1.4-4.8-2.64-6.41-3.73-1.61-1.09-2.98-2.49-4.09-4.19s-1.67-3.77-1.67-6.22c0-3.75,1.25-6.72,3.76-8.9,2.51-2.18,5.81-3.27,9.91-3.27,2.84,0,5.34.54,7.53,1.6,2.18,1.07,3.86,2.58,5.04,4.55s1.77,4.21,1.77,6.74v1.37c0,.22-.08.4-.23.56-.15.15-.34.23-.56.23h-5.89c-.22,0-.4-.08-.56-.23-.15-.15-.23-.34-.23-.56v-1.24c0-1.88-.63-3.42-1.9-4.65-1.27-1.22-2.97-1.83-5.1-1.83-1.88,0-3.36.49-4.45,1.47-1.09.98-1.64,2.35-1.64,4.09,0,1.18.28,2.18.85,3.01.57.83,1.43,1.61,2.58,2.36,1.16.74,2.91,1.7,5.27,2.88,3.14,1.79,5.45,3.19,6.94,4.19,1.48,1,2.74,2.3,3.76,3.89,1.02,1.59,1.54,3.54,1.54,5.86,0,3.84-1.29,6.89-3.86,9.16-2.57,2.27-6.02,3.4-10.34,3.4-2.88,0-5.41-.51-7.59-1.54Z"/><path class="e" d="m97.29,76.51c-.15-.15-.23-.34-.23-.56V31.72c0-.22.08-.4.23-.56.15-.15.34-.23.56-.23h6.02c.22,0,.4.08.56.23.15.15.23.34.23.56v38.15c0,.22.11.33.33.33h18c.22,0,.4.08.56.23.15.15.23.34.23.56v4.97c0,.22-.08.4-.23.56-.15.15-.34.23-.56.23h-25.13c-.22,0-.4-.08-.56-.23Z"/></g></g></g></svg>