<svg width="229" height="47" xmlns="http://www.w3.org/2000/svg" xmlns:xlink="http://www.w3.org/1999/xlink"><defs><path id="a" d="M.385.471h7.46v7.46H.385z"/><path id="c" d="M0 .33h33.31v26.262H0z"/><path id="e" d="M0 46.53h228.54V.521H0z"/></defs><g fill="none" fill-rule="evenodd"><g transform="translate(153.011 .051)"><mask id="b" fill="#fff"><use xlink:href="#a"/></mask><path d="M4.115 7.93a3.733 3.733 0 003.73-3.73A3.732 3.732 0 004.115.47 3.732 3.732 0 00.385 4.2a3.733 3.733 0 003.73 3.73" fill="#FEFEFE" mask="url(#b)"/></g><g transform="translate(0 9.451)"><mask id="d" fill="#fff"><use xlink:href="#c"/></mask><path d="M16.27 6.247c4.243 0 7.78 2.508 9.195 7.266H7.459c1.094-4.63 4.566-7.266 8.81-7.266M7.46 19.044h25.85v-1.222C33.31 5.668 23.665.33 17.17.33 6.302.33 0 8.498 0 16.728c0 3.51 1.152 7.006 3.31 9.864h10.226c-3.233-1.188-5.787-3.99-6.076-7.548" fill="#FEFEFE" mask="url(#d)"/></g><path d="M25.98 31.839c-1.51 2.013-3.35 3.447-5.445 4.204h10.207c.306-.341.607-.69.896-1.053l-5.659-3.151zm33.22-.258c-1.43 2.249-3.39 3.884-5.973 4.462h11.134c.243-.322.477-.65.691-.99L59.2 31.582zM41.002 26.18c0-5.595 4.244-10.096 10.096-10.096 3.794 0 6.302 1.93 8.102 4.694l5.852-3.472c-3.022-4.373-7.33-7.524-13.954-7.524-10.868 0-17.17 8.167-17.17 16.398 0 3.51 1.151 7.005 3.31 9.864H48.87c-4.67-.981-7.869-5.009-7.869-9.864M82.004 9.782c-4.244 0-7.652 1.865-9.518 4.759h-.128V1.358H65.67v34.686h6.688V24.316c0-5.08 3.344-7.846 7.653-7.846 4.436 0 7.394 2.315 7.394 7.974v11.6h6.688v-13.08c0-7.716-5.53-13.182-12.09-13.182m63.934.836l-6.881 17.813h-.128l-6.881-17.813h-7.46l11.46 25.426h5.89l11.46-25.426z" fill="#FEFEFE"/><mask id="f" fill="#fff"><use xlink:href="#e"/></mask><path fill="#FEFEFE" mask="url(#f)" d="M153.782 36.043h6.689V10.618h-6.689zm23.343-20.345c4.244 0 7.78 2.508 9.195 7.267h-18.005c1.094-4.63 4.565-7.267 8.81-7.267m-8.81 12.797h25.85v-1.222c0-12.154-9.645-17.491-16.14-17.491-10.868 0-17.17 8.167-17.17 16.398 0 3.51 1.152 7.005 3.31 9.863h10.226c-3.233-1.187-5.787-3.99-6.076-7.548m18.52 3.344c-1.51 2.013-3.35 3.447-5.445 4.204h10.208c.306-.341.607-.69.896-1.053l-5.659-3.151z"/><path fill="#FEFEFE" mask="url(#f)" d="M209.118 25.73h.13l4.448 10.313h5.276l9.567-25.425h-7.203l-5.53 16.848h-.128l-6.495-14.919-6.495 14.919h-.129l-5.53-16.848h-7.202l9.566 25.425h5.277zM111.911 9.782c-10.868 0-17.17 8.167-17.17 16.398a16.41 16.41 0 003.32 9.864h7.264l.708-1.57c-2.604-1.821-4.218-4.848-4.218-8.294 0-5.595 4.244-10.096 10.096-10.096s10.096 4.501 10.096 10.096c0 3.446-1.614 6.473-4.218 8.293l.707 1.57h7.265a16.406 16.406 0 003.32-9.863c0-8.23-6.302-16.398-17.17-16.398"/><path d="M119.426 42.23l-.93-2.06-.707-1.57-.059-.132-5.82-12.911-5.818 12.91-.06.132-.707 1.57-.929 2.061-1.03 2.285c2.402 1.266 5.264 2.014 8.545 2.014 3.282 0 6.143-.748 8.544-2.014l-1.03-2.285z" fill="#FEFEFE" mask="url(#f)"/></g></svg>